<svg width="20" height="20" viewBox="0 0 2048 2048" fill="none" xmlns="http://www.w3.org/2000/svg">
<g filter="url(#filter0_d)">
<circle cx="1024" cy="1024" r="855" fill="#57A1F2"/>
<circle cx="1024" cy="1024" r="855" fill="url(#paint0_linear)"/>
</g>
<path d="M1074.59 992.334C1077.43 992.338 1080.24 991.781 1082.86 990.696C1085.48 989.611 1087.86 988.018 1089.86 986.01L1108.01 967.868C1110.01 965.863 1111.6 963.483 1112.69 960.862C1113.77 958.242 1114.33 955.434 1114.33 952.598C1114.33 949.762 1113.77 946.954 1112.69 944.333C1111.6 941.713 1110.01 939.332 1108.01 937.327C1106 935.321 1103.62 933.73 1101 932.645C1098.38 931.559 1095.57 931 1092.74 931C1089.9 931 1087.09 931.558 1084.47 932.643C1081.85 933.728 1079.47 935.319 1077.47 937.324L1059.33 955.466C1056.3 958.485 1054.25 962.333 1053.41 966.522C1052.58 970.711 1053.01 975.053 1054.64 978.999C1056.28 982.945 1059.05 986.317 1062.6 988.69C1066.15 991.063 1070.32 992.329 1074.59 992.329V992.334Z" fill="url(#paint1_linear)"/>
<g filter="url(#filter1_b)">
<path d="M372.165 851.839L454.248 887.037C433.728 972.36 432.658 1061.21 451.117 1147L368.17 1180.2C362.853 1182.33 358.598 1186.48 356.341 1191.74C354.084 1197.01 354.008 1202.95 356.131 1208.27L413.274 1351.17C415.404 1356.48 419.558 1360.73 424.822 1362.99C430.087 1365.24 436.03 1365.31 441.346 1363.18L524.319 1330.01C531.158 1341.15 538.364 1352.05 545.94 1362.69L464.586 1444.05C455.404 1453.19 448.116 1464.06 443.139 1476.02C438.162 1487.98 435.593 1500.81 435.58 1513.77C435.567 1526.73 438.109 1539.56 443.062 1551.53C448.014 1563.51 455.28 1574.39 464.443 1583.55C473.605 1592.71 484.485 1599.98 496.459 1604.93C508.433 1609.88 521.266 1612.43 534.224 1612.41C547.182 1612.4 560.01 1609.83 571.974 1604.85C583.938 1599.88 594.803 1592.59 603.946 1583.41L685.274 1502.11C692.049 1506.88 698.878 1511.58 705.869 1516.09L670.698 1598.2C668.442 1603.47 668.369 1609.41 670.495 1614.73C672.621 1620.05 676.771 1624.31 682.035 1626.57L823.501 1687.17C828.763 1689.42 834.704 1689.49 840.018 1687.36C845.333 1685.24 849.586 1681.09 851.843 1675.83L887.04 1593.75C972.365 1614.25 1061.21 1615.32 1147 1596.88L1180.2 1679.82C1181.25 1682.46 1182.82 1684.86 1184.8 1686.89C1186.78 1688.92 1189.14 1690.54 1191.74 1691.66C1194.35 1692.78 1197.15 1693.37 1199.99 1693.4C1202.83 1693.44 1205.64 1692.92 1208.27 1691.86L1351.17 1634.72C1356.49 1632.59 1360.74 1628.44 1362.99 1623.17C1365.24 1617.91 1365.31 1611.96 1363.18 1606.65L1330.01 1523.67C1404.87 1477.88 1468.47 1415.83 1516.09 1342.12L1598.2 1377.3C1600.81 1378.42 1603.61 1379.01 1606.45 1379.05C1609.29 1379.08 1612.1 1378.56 1614.74 1377.51C1617.37 1376.45 1619.77 1374.89 1621.8 1372.91C1623.83 1370.93 1625.45 1368.57 1626.57 1365.96L1687.17 1224.49C1689.42 1219.23 1689.49 1213.29 1687.37 1207.98C1685.24 1202.66 1681.09 1198.41 1675.83 1196.15L1593.75 1160.95C1614.27 1075.63 1615.34 986.784 1596.88 900.992L1679.83 867.791C1685.14 865.662 1689.4 861.51 1691.66 856.247C1693.91 850.983 1693.99 845.039 1691.87 839.719L1634.72 696.823C1632.59 691.508 1628.44 687.257 1623.18 685.004C1617.91 682.752 1611.97 682.682 1606.65 684.811L1523.68 717.985C1516.2 705.757 1508.24 693.773 1499.92 682.166L1587.81 488.767C1589.64 484.766 1590.19 480.304 1589.41 475.978C1588.63 471.651 1586.54 467.667 1583.44 464.558C1580.33 461.449 1576.34 459.364 1572.02 458.582C1567.69 457.8 1563.23 458.358 1559.23 460.182L1365.85 548.069C1358.08 542.508 1350.17 537.083 1342.13 531.9L1377.3 449.79C1379.56 444.525 1379.63 438.579 1377.5 433.26C1375.38 427.94 1371.23 423.682 1365.96 421.422L1224.5 360.824C1219.23 358.572 1213.29 358.5 1207.98 360.626C1202.66 362.752 1198.41 366.901 1196.15 372.161L1160.96 454.244C1075.63 433.738 986.789 432.668 900.995 451.113L867.795 368.166C865.666 362.849 861.513 358.596 856.25 356.338C850.987 354.081 845.042 354.005 839.723 356.127L696.827 413.27C691.512 415.4 687.261 419.554 685.008 424.819C682.756 430.083 682.686 436.026 684.815 441.342L717.988 524.316C643.13 570.111 579.532 632.159 531.904 705.865L449.767 670.694C444.505 668.442 438.564 668.371 433.25 670.496C427.935 672.622 423.682 676.771 421.425 682.031L360.828 823.497C358.575 828.759 358.504 834.7 360.63 840.014C362.756 845.329 366.905 849.582 372.165 851.839V851.839ZM573.418 1552.88C568.277 1558.02 562.173 1562.1 555.455 1564.88C548.737 1567.66 541.537 1569.1 534.266 1569.1C526.995 1569.1 519.795 1567.66 513.077 1564.88C506.359 1562.1 500.255 1558.02 495.114 1552.88C489.972 1547.74 485.894 1541.63 483.111 1534.92C480.329 1528.2 478.897 1521 478.897 1513.73C478.897 1506.46 480.329 1499.26 483.111 1492.54C485.894 1485.82 489.972 1479.72 495.114 1474.58L572.393 1397.32C595.942 1425.85 622.153 1452.07 650.67 1475.63L573.418 1552.88ZM1524.68 523.317L1493.37 592.174L1455.82 554.628L1524.68 523.317ZM1381.13 588.584L1413.82 573.711L1474.28 634.174L1459.41 666.861L1441.19 685.108L1362.89 606.804L1381.13 588.584ZM1410.63 715.636L1311.44 814.833C1311.41 814.86 1311.41 814.887 1311.38 814.914L883.073 1243.2C873.486 1237.04 864.316 1230.26 855.621 1222.9L1039.28 1039.27C1043.33 1035.22 1045.6 1029.73 1045.6 1023.99C1045.6 1018.26 1043.33 1012.77 1039.28 1008.72C1035.22 1004.67 1029.73 1002.39 1024 1002.39C1018.27 1002.39 1012.77 1004.67 1008.72 1008.72L825.093 1192.37C817.733 1183.67 810.953 1174.49 804.795 1164.89L1233.11 736.582C1233.12 736.581 1233.13 736.575 1233.14 736.565C1233.15 736.555 1233.16 736.542 1233.16 736.528L1332.36 637.359L1410.63 715.636ZM1024.05 720.063C971.09 720.083 919.052 733.942 873.095 760.267C827.138 786.593 788.858 824.47 762.049 870.146C735.239 915.823 720.831 967.712 720.252 1020.67C719.672 1073.63 732.943 1125.82 758.747 1172.07C758.774 1172.1 758.774 1172.13 758.801 1172.16C786.183 1221.32 826.744 1261.88 875.92 1289.25V1289.27C885.145 1294.39 894.622 1299.04 904.315 1303.2C961.312 1327.64 1024.42 1334.04 1085.16 1321.55C1145.91 1309.07 1201.37 1278.29 1244.11 1233.36C1286.85 1188.42 1314.81 1131.49 1324.24 1070.19C1333.67 1008.9 1324.12 946.194 1296.86 890.492L1321.94 865.416C1359.34 935.727 1370.68 1017 1353.93 1094.86C1337.18 1172.73 1293.44 1242.15 1230.43 1290.87C1167.42 1339.58 1089.22 1364.44 1009.65 1361.05C930.079 1357.66 854.274 1326.23 795.643 1272.33C737.013 1218.43 699.337 1145.52 689.279 1066.52C679.222 987.516 697.432 907.5 740.688 840.629C783.944 773.757 849.457 724.34 925.639 701.12C1001.82 677.899 1083.76 682.372 1156.96 713.747C1165.65 717.499 1174.19 721.592 1182.58 726.028L1157.5 751.131C1152.94 748.918 1148.32 746.785 1143.68 744.788C1105.89 728.524 1065.19 720.112 1024.05 720.063V720.063ZM1124.87 783.737L783.714 1124.89C763.676 1077.17 758.3 1024.57 768.274 973.783C778.247 922.998 803.117 876.333 839.713 839.736C876.31 803.14 922.975 778.27 973.76 768.297C1024.55 758.324 1077.15 763.699 1124.87 783.737V783.737ZM923.129 1264.25L1264.28 923.098C1284.32 970.817 1289.7 1023.42 1279.72 1074.21C1269.75 1124.99 1244.88 1171.66 1208.28 1208.25C1171.69 1244.85 1125.02 1269.72 1074.24 1279.69C1023.45 1289.67 970.847 1284.29 923.129 1264.25V1264.25ZM452.628 718.902L531.931 752.858C536.732 754.908 542.112 755.151 547.078 753.544C552.044 751.937 556.261 748.587 558.95 744.113C606.92 664.331 674.645 598.262 755.588 552.28C760.123 549.703 763.571 545.571 765.293 540.648C767.015 535.725 766.895 530.345 764.955 525.503L732.915 445.364L835.701 404.254L867.768 484.367C869.712 489.213 873.344 493.191 877.993 495.568C882.642 497.944 887.993 498.558 893.06 497.297C983.39 474.779 1078 475.922 1167.76 500.617C1172.79 502.005 1178.16 501.523 1182.86 499.26C1187.57 496.997 1191.29 493.106 1193.35 488.308L1227.33 409.032L1329.09 452.624L1295.14 531.928C1293.08 536.728 1292.84 542.109 1294.45 547.075C1296.05 552.042 1299.41 556.259 1303.88 558.947C1313.3 564.615 1322.61 570.634 1331.74 576.896L1214.35 694.285C1201.29 686.764 1187.81 680.014 1173.97 674.068C1090.86 638.442 997.778 633.559 911.396 660.294C825.014 687.029 750.966 743.636 702.51 819.981C654.053 896.326 634.35 987.426 646.929 1076.97C659.508 1166.52 703.547 1248.66 771.162 1308.7C838.777 1368.74 925.555 1402.76 1015.96 1404.66C1106.36 1406.56 1194.49 1376.22 1264.57 1319.08C1334.65 1261.93 1382.11 1181.71 1398.44 1092.77C1414.77 1003.84 1398.91 911.988 1353.71 833.673L1471.04 716.311C1479.82 729.051 1488.1 742.17 1495.71 755.585C1498.29 760.124 1502.42 763.576 1507.34 765.299C1512.27 767.022 1517.65 766.898 1522.49 764.951L1602.63 732.911L1643.74 835.697L1563.63 867.764C1558.78 869.708 1554.8 873.34 1552.43 877.989C1550.05 882.638 1549.44 887.99 1550.7 893.056C1573.21 983.386 1572.07 1078 1547.38 1167.76C1545.99 1172.79 1546.47 1178.15 1548.73 1182.86C1551 1187.56 1554.89 1191.29 1559.69 1193.34L1638.96 1227.33L1595.37 1329.09L1516.07 1295.13C1511.27 1293.08 1505.88 1292.83 1500.92 1294.44C1495.95 1296.05 1491.73 1299.4 1489.05 1303.88C1441.08 1383.66 1373.35 1449.73 1292.41 1495.71C1287.87 1498.29 1284.43 1502.42 1282.7 1507.34C1280.98 1512.26 1281.1 1517.65 1283.04 1522.49L1315.08 1602.63L1212.3 1643.74L1180.23 1563.62C1178.29 1558.78 1174.65 1554.8 1170 1552.42C1165.36 1550.05 1160 1549.43 1154.94 1550.69C1064.61 1573.21 969.998 1572.07 880.238 1547.37C875.206 1545.99 869.843 1546.48 865.14 1548.74C860.437 1551 856.711 1554.89 854.65 1559.68L820.667 1638.96L718.906 1595.37L752.862 1516.06C754.914 1511.26 755.159 1505.88 753.551 1500.91C751.943 1495.95 748.592 1491.73 744.117 1489.04C664.341 1441.07 598.273 1373.34 552.283 1292.41C549.707 1287.87 545.575 1284.42 540.652 1282.7C535.729 1280.98 530.348 1281.1 525.507 1283.04L445.367 1315.08L404.258 1212.29L484.371 1180.23C489.217 1178.28 493.195 1174.65 495.572 1170C497.948 1165.35 498.562 1160 497.3 1154.93C474.783 1064.6 475.926 969.994 500.62 880.235C502.008 875.202 501.526 869.837 499.263 865.133C497.001 860.428 493.11 856.703 488.312 854.646L409.036 820.663L452.628 718.902Z" fill="url(#paint2_linear)"/>
</g>
<defs>
<filter id="filter0_d" x="57" y="106" width="1934" height="1934" filterUnits="userSpaceOnUse" color-interpolation-filters="sRGB">
<feFlood flood-opacity="0" result="BackgroundImageFix"/>
<feColorMatrix in="SourceAlpha" type="matrix" values="0 0 0 0 0 0 0 0 0 0 0 0 0 0 0 0 0 0 127 0"/>
<feOffset dy="49"/>
<feGaussianBlur stdDeviation="56"/>
<feColorMatrix type="matrix" values="0 0 0 0 0.683333 0 0 0 0 0.833981 0 0 0 0 1 0 0 0 1 0"/>
<feBlend mode="normal" in2="BackgroundImageFix" result="effect1_dropShadow"/>
<feBlend mode="normal" in="SourceGraphic" in2="effect1_dropShadow" result="shape"/>
</filter>
<filter id="filter1_b" x="350.592" y="350.589" width="1346.81" height="1346.82" filterUnits="userSpaceOnUse" color-interpolation-filters="sRGB">
<feFlood flood-opacity="0" result="BackgroundImageFix"/>
<feGaussianBlur in="BackgroundImage" stdDeviation="2"/>
<feComposite in2="SourceAlpha" operator="in" result="effect1_backgroundBlur"/>
<feBlend mode="normal" in="SourceGraphic" in2="effect1_backgroundBlur" result="shape"/>
</filter>
<linearGradient id="paint0_linear" x1="1024" y1="169" x2="1024" y2="1879" gradientUnits="userSpaceOnUse">
<stop stop-color="#E1E0FF"/>
<stop offset="0.59375" stop-color="white" stop-opacity="0.31"/>
<stop offset="1" stop-color="white" stop-opacity="0"/>
</linearGradient>
<linearGradient id="paint1_linear" x1="474.782" y1="1570.55" x2="1898.77" y2="146.567" gradientUnits="userSpaceOnUse">
<stop stop-color="white"/>
<stop offset="0.518" stop-color="white"/>
<stop offset="1" stop-color="white"/>
</linearGradient>
<linearGradient id="paint2_linear" x1="-7548.43" y1="-674539" x2="-713848" y2="31758.5" gradientUnits="userSpaceOnUse">
<stop stop-color="white"/>
<stop offset="0.518" stop-color="white"/>
<stop offset="1" stop-color="white"/>
</linearGradient>
</defs>
</svg>
