<svg id="Layer_1" enable-background="new 0 0 512 512" height="512" viewBox="0 0 512 512" width="512" xmlns="http://www.w3.org/2000/svg"><path d="m72.763 224.186c0 21.653 17.556 39.27 39.135 39.27s39.135-17.616 39.135-39.27-17.556-39.271-39.135-39.271c-21.579-.001-39.135 17.616-39.135 39.271zm39.135-24.272c13.308 0 24.135 10.888 24.135 24.271 0 13.382-10.827 24.27-24.135 24.27s-24.135-10.888-24.135-24.27c0-13.383 10.827-24.271 24.135-24.271z"/><path d="m487.944 95.93c-2.803-3.05-7.546-3.253-10.597-.45-3.051 2.802-3.253 7.546-.451 10.597 12.964 14.114 20.104 32.474 20.104 51.694 0 42.05-34.05 76.26-75.904 76.26-41.852 0-75.902-34.21-75.902-76.26s34.05-76.26 75.902-76.26c10.399 0 20.47 2.071 29.935 6.157 3.803 1.64 8.217-.109 9.858-3.913 1.642-3.803-.11-8.217-3.913-9.858-11.353-4.9-23.424-7.386-35.88-7.386-35.864 0-66.94 20.961-81.721 51.319h-325.911c-7.424.001-13.464 6.053-13.464 13.491v300.677c0 7.439 6.04 13.49 13.464 13.49h456.854c7.424 0 13.464-6.052 13.464-13.49v-104.998c0-4.143-3.358-7.5-7.5-7.5s-7.5 3.357-7.5 7.5v103.488h-453.782v-297.657h318.644c-1.369 4.832-2.345 9.828-2.903 14.948h-208.741c-4.142 0-7.5 3.357-7.5 7.5s3.358 7.5 7.5 7.5h208.332c2.599 48.001 42.314 86.252 90.764 86.252 6.114 0 12.087-.613 17.866-1.774v107.009l-44.017-62.822c-2.323-3.314-5.813-5.216-9.575-5.216-3.761.001-7.251 1.902-9.574 5.217l-43.03 61.415-80.673-115.141c-2.323-3.314-5.813-5.215-9.574-5.215-3.762 0-7.251 1.9-9.575 5.216l-80.89 115.451-43.249-61.728c-2.323-3.314-5.813-5.215-9.575-5.215-3.761.001-7.25 1.901-9.574 5.217l-44.835 63.991v-192.657h42.178c4.142 0 7.5-3.357 7.5-7.5s-3.358-7.5-7.5-7.5h-43.714c-7.424 0-13.464 6.052-13.464 13.49v240.78c0 7.439 6.04 13.49 13.464 13.49h397.212c7.424 0 13.464-6.052 13.464-13.49v-159.192c5.188-2.027 10.144-4.52 14.821-7.424v55.567c0 4.143 3.358 7.5 7.5 7.5s7.5-3.357 7.5-7.5v-67.197c17.376-16.631 28.218-40.084 28.218-66.032 0-22.989-8.543-44.951-24.056-61.841zm-443.123 304.61v-18.963l54.41-77.658 67.696 96.621zm140.423 0-24.031-34.299 81.307-116.046 105.338 150.345zm253.717 0h-72.788l-24.25-34.61 43.447-62.01 53.59 76.487v20.133z"/><path d="m421.096 100.275c-3.271 0-6.397 1.399-8.577 3.84l-32.318 36.181c-3.013 3.377-3.766 8.228-1.917 12.357 1.851 4.132 5.97 6.802 10.497 6.802h11.315v46.316c0 6.341 5.159 11.5 11.5 11.5h19c6.341 0 11.5-5.159 11.5-11.5v-46.316h11.315c4.526 0 8.647-2.67 10.497-6.803 1.849-4.129 1.096-8.979-1.92-12.359l-32.315-36.178c-2.179-2.44-5.306-3.84-8.577-3.84zm13.5 44.18c-4.142 0-7.5 3.357-7.5 7.5v50.316h-12v-50.316c0-4.143-3.358-7.5-7.5-7.5h-10.998l24.498-27.426 24.498 27.426z"/></svg>